<mxfile host="app.diagrams.net" modified="2023-04-18T05:44:18.377Z" agent="Mozilla/5.0 (Windows NT 10.0; Win64; x64) AppleWebKit/537.36 (KHTML, like Gecko) Chrome/112.0.0.0 Safari/537.36" etag="4r7dAuSyZJpc5kGqpOiL" version="21.1.2" type="github">
  <diagram id="C5RBs43oDa-KdzZeNtuy" name="Page-1">
    <mxGraphModel dx="2261" dy="796" grid="1" gridSize="10" guides="1" tooltips="1" connect="1" arrows="1" fold="1" page="1" pageScale="1" pageWidth="827" pageHeight="1169" math="0" shadow="0">
      <root>
        <mxCell id="WIyWlLk6GJQsqaUBKTNV-0" />
        <mxCell id="WIyWlLk6GJQsqaUBKTNV-1" parent="WIyWlLk6GJQsqaUBKTNV-0" />
        <mxCell id="zkfFHV4jXpPFQw0GAbJ--0" value="Main" style="swimlane;fontStyle=2;align=center;verticalAlign=top;childLayout=stackLayout;horizontal=1;startSize=26;horizontalStack=0;resizeParent=1;resizeLast=0;collapsible=1;marginBottom=0;rounded=0;shadow=0;strokeWidth=1;" parent="WIyWlLk6GJQsqaUBKTNV-1" vertex="1">
          <mxGeometry x="-90" y="40" width="340" height="738" as="geometry">
            <mxRectangle x="230" y="140" width="160" height="26" as="alternateBounds" />
          </mxGeometry>
        </mxCell>
        <mxCell id="zkfFHV4jXpPFQw0GAbJ--1" value="- chat: TextArea" style="text;align=left;verticalAlign=top;spacingLeft=4;spacingRight=4;overflow=hidden;rotatable=0;points=[[0,0.5],[1,0.5]];portConstraint=eastwest;" parent="zkfFHV4jXpPFQw0GAbJ--0" vertex="1">
          <mxGeometry y="26" width="340" height="26" as="geometry" />
        </mxCell>
        <mxCell id="zkfFHV4jXpPFQw0GAbJ--2" value="- chatMessages: ArrayList&lt;String&gt;" style="text;align=left;verticalAlign=top;spacingLeft=4;spacingRight=4;overflow=hidden;rotatable=0;points=[[0,0.5],[1,0.5]];portConstraint=eastwest;rounded=0;shadow=0;html=0;" parent="zkfFHV4jXpPFQw0GAbJ--0" vertex="1">
          <mxGeometry y="52" width="340" height="26" as="geometry" />
        </mxCell>
        <mxCell id="zkfFHV4jXpPFQw0GAbJ--3" value="- promptTextFlag: boolean&#xa;" style="text;align=left;verticalAlign=top;spacingLeft=4;spacingRight=4;overflow=hidden;rotatable=0;points=[[0,0.5],[1,0.5]];portConstraint=eastwest;rounded=0;shadow=0;html=0;" parent="zkfFHV4jXpPFQw0GAbJ--0" vertex="1">
          <mxGeometry y="78" width="340" height="26" as="geometry" />
        </mxCell>
        <mxCell id="eDszfDAxmyaRL6Qd2Sii-7" value="+ messageField: TextField&#xa;" style="text;align=left;verticalAlign=top;spacingLeft=4;spacingRight=4;overflow=hidden;rotatable=0;points=[[0,0.5],[1,0.5]];portConstraint=eastwest;rounded=0;shadow=0;html=0;" vertex="1" parent="zkfFHV4jXpPFQw0GAbJ--0">
          <mxGeometry y="104" width="340" height="26" as="geometry" />
        </mxCell>
        <mxCell id="zkfFHV4jXpPFQw0GAbJ--5" value="+ message: String&#xa;" style="text;align=left;verticalAlign=top;spacingLeft=4;spacingRight=4;overflow=hidden;rotatable=0;points=[[0,0.5],[1,0.5]];portConstraint=eastwest;" parent="zkfFHV4jXpPFQw0GAbJ--0" vertex="1">
          <mxGeometry y="130" width="340" height="28" as="geometry" />
        </mxCell>
        <mxCell id="eDszfDAxmyaRL6Qd2Sii-8" value="+  sendButton: Button&#xa;" style="text;align=left;verticalAlign=top;spacingLeft=4;spacingRight=4;overflow=hidden;rotatable=0;points=[[0,0.5],[1,0.5]];portConstraint=eastwest;" vertex="1" parent="zkfFHV4jXpPFQw0GAbJ--0">
          <mxGeometry y="158" width="340" height="28" as="geometry" />
        </mxCell>
        <mxCell id="eDszfDAxmyaRL6Qd2Sii-10" value="+ userName: String&#xa;" style="text;align=left;verticalAlign=top;spacingLeft=4;spacingRight=4;overflow=hidden;rotatable=0;points=[[0,0.5],[1,0.5]];portConstraint=eastwest;" vertex="1" parent="zkfFHV4jXpPFQw0GAbJ--0">
          <mxGeometry y="186" width="340" height="28" as="geometry" />
        </mxCell>
        <mxCell id="eDszfDAxmyaRL6Qd2Sii-9" value="+ promptText: String&#xa;" style="text;align=left;verticalAlign=top;spacingLeft=4;spacingRight=4;overflow=hidden;rotatable=0;points=[[0,0.5],[1,0.5]];portConstraint=eastwest;" vertex="1" parent="zkfFHV4jXpPFQw0GAbJ--0">
          <mxGeometry y="214" width="340" height="26" as="geometry" />
        </mxCell>
        <mxCell id="eDszfDAxmyaRL6Qd2Sii-55" value="- localStage: String&#xa;" style="text;align=left;verticalAlign=top;spacingLeft=4;spacingRight=4;overflow=hidden;rotatable=0;points=[[0,0.5],[1,0.5]];portConstraint=eastwest;" vertex="1" parent="zkfFHV4jXpPFQw0GAbJ--0">
          <mxGeometry y="240" width="340" height="26" as="geometry" />
        </mxCell>
        <mxCell id="eDszfDAxmyaRL6Qd2Sii-56" value="+ PORT_NUMBER: String&#xa;" style="text;align=left;verticalAlign=top;spacingLeft=4;spacingRight=4;overflow=hidden;rotatable=0;points=[[0,0.5],[1,0.5]];portConstraint=eastwest;" vertex="1" parent="zkfFHV4jXpPFQw0GAbJ--0">
          <mxGeometry y="266" width="340" height="26" as="geometry" />
        </mxCell>
        <mxCell id="eDszfDAxmyaRL6Qd2Sii-58" value="- bufferedReader: BufferedReader&#xa;" style="text;align=left;verticalAlign=top;spacingLeft=4;spacingRight=4;overflow=hidden;rotatable=0;points=[[0,0.5],[1,0.5]];portConstraint=eastwest;" vertex="1" parent="zkfFHV4jXpPFQw0GAbJ--0">
          <mxGeometry y="292" width="340" height="26" as="geometry" />
        </mxCell>
        <mxCell id="eDszfDAxmyaRL6Qd2Sii-57" value="- socket: Socket&#xa;" style="text;align=left;verticalAlign=top;spacingLeft=4;spacingRight=4;overflow=hidden;rotatable=0;points=[[0,0.5],[1,0.5]];portConstraint=eastwest;" vertex="1" parent="zkfFHV4jXpPFQw0GAbJ--0">
          <mxGeometry y="318" width="340" height="26" as="geometry" />
        </mxCell>
        <mxCell id="eDszfDAxmyaRL6Qd2Sii-59" value="- bufferedWriter: BufferedWriter&#xa;" style="text;align=left;verticalAlign=top;spacingLeft=4;spacingRight=4;overflow=hidden;rotatable=0;points=[[0,0.5],[1,0.5]];portConstraint=eastwest;" vertex="1" parent="zkfFHV4jXpPFQw0GAbJ--0">
          <mxGeometry y="344" width="340" height="18" as="geometry" />
        </mxCell>
        <mxCell id="zkfFHV4jXpPFQw0GAbJ--4" value="" style="line;html=1;strokeWidth=1;align=left;verticalAlign=middle;spacingTop=-1;spacingLeft=3;spacingRight=3;rotatable=0;labelPosition=right;points=[];portConstraint=eastwest;" parent="zkfFHV4jXpPFQw0GAbJ--0" vertex="1">
          <mxGeometry y="362" width="340" height="18" as="geometry" />
        </mxCell>
        <mxCell id="eDszfDAxmyaRL6Qd2Sii-11" value="+ start(primaryStage: String): void&#xa;" style="text;align=left;verticalAlign=top;spacingLeft=4;spacingRight=4;overflow=hidden;rotatable=0;points=[[0,0.5],[1,0.5]];portConstraint=eastwest;" vertex="1" parent="zkfFHV4jXpPFQw0GAbJ--0">
          <mxGeometry y="380" width="340" height="28" as="geometry" />
        </mxCell>
        <mxCell id="eDszfDAxmyaRL6Qd2Sii-12" value="- updateChatBox(message: String): void&#xa;" style="text;align=left;verticalAlign=top;spacingLeft=4;spacingRight=4;overflow=hidden;rotatable=0;points=[[0,0.5],[1,0.5]];portConstraint=eastwest;" vertex="1" parent="zkfFHV4jXpPFQw0GAbJ--0">
          <mxGeometry y="408" width="340" height="28" as="geometry" />
        </mxCell>
        <mxCell id="eDszfDAxmyaRL6Qd2Sii-13" value="+ initalizeClient(host: String, port: Integer): void&#xa;" style="text;align=left;verticalAlign=top;spacingLeft=4;spacingRight=4;overflow=hidden;rotatable=0;points=[[0,0.5],[1,0.5]];portConstraint=eastwest;" vertex="1" parent="zkfFHV4jXpPFQw0GAbJ--0">
          <mxGeometry y="436" width="340" height="28" as="geometry" />
        </mxCell>
        <mxCell id="eDszfDAxmyaRL6Qd2Sii-14" value="- signOff(): void&#xa;" style="text;align=left;verticalAlign=top;spacingLeft=4;spacingRight=4;overflow=hidden;rotatable=0;points=[[0,0.5],[1,0.5]];portConstraint=eastwest;" vertex="1" parent="zkfFHV4jXpPFQw0GAbJ--0">
          <mxGeometry y="464" width="340" height="22" as="geometry" />
        </mxCell>
        <mxCell id="eDszfDAxmyaRL6Qd2Sii-17" value="+ sendMessage(message: String, tag: String): void&#xa;" style="text;align=left;verticalAlign=top;spacingLeft=4;spacingRight=4;overflow=hidden;rotatable=0;points=[[0,0.5],[1,0.5]];portConstraint=eastwest;" vertex="1" parent="zkfFHV4jXpPFQw0GAbJ--0">
          <mxGeometry y="486" width="340" height="28" as="geometry" />
        </mxCell>
        <mxCell id="eDszfDAxmyaRL6Qd2Sii-18" value="+ listentoMessage(iscreen: TextArea): void&#xa;" style="text;align=left;verticalAlign=top;spacingLeft=4;spacingRight=4;overflow=hidden;rotatable=0;points=[[0,0.5],[1,0.5]];portConstraint=eastwest;" vertex="1" parent="zkfFHV4jXpPFQw0GAbJ--0">
          <mxGeometry y="514" width="340" height="28" as="geometry" />
        </mxCell>
        <mxCell id="eDszfDAxmyaRL6Qd2Sii-19" value="-  processResponse(response: String): void&#xa;" style="text;align=left;verticalAlign=top;spacingLeft=4;spacingRight=4;overflow=hidden;rotatable=0;points=[[0,0.5],[1,0.5]];portConstraint=eastwest;" vertex="1" parent="zkfFHV4jXpPFQw0GAbJ--0">
          <mxGeometry y="542" width="340" height="28" as="geometry" />
        </mxCell>
        <mxCell id="eDszfDAxmyaRL6Qd2Sii-20" value="+ startClient(): void&#xa;" style="text;align=left;verticalAlign=top;spacingLeft=4;spacingRight=4;overflow=hidden;rotatable=0;points=[[0,0.5],[1,0.5]];portConstraint=eastwest;" vertex="1" parent="zkfFHV4jXpPFQw0GAbJ--0">
          <mxGeometry y="570" width="340" height="28" as="geometry" />
        </mxCell>
        <mxCell id="eDszfDAxmyaRL6Qd2Sii-21" value="+ close(): void&#xa;" style="text;align=left;verticalAlign=top;spacingLeft=4;spacingRight=4;overflow=hidden;rotatable=0;points=[[0,0.5],[1,0.5]];portConstraint=eastwest;" vertex="1" parent="zkfFHV4jXpPFQw0GAbJ--0">
          <mxGeometry y="598" width="340" height="28" as="geometry" />
        </mxCell>
        <mxCell id="eDszfDAxmyaRL6Qd2Sii-22" value="+ payLoadt(tag: String, msg: String, time: String): String&#xa;" style="text;align=left;verticalAlign=top;spacingLeft=4;spacingRight=4;overflow=hidden;rotatable=0;points=[[0,0.5],[1,0.5]];portConstraint=eastwest;" vertex="1" parent="zkfFHV4jXpPFQw0GAbJ--0">
          <mxGeometry y="626" width="340" height="28" as="geometry" />
        </mxCell>
        <mxCell id="eDszfDAxmyaRL6Qd2Sii-70" style="edgeStyle=orthogonalEdgeStyle;rounded=0;orthogonalLoop=1;jettySize=auto;html=1;entryX=0;entryY=0.5;entryDx=0;entryDy=0;" edge="1" parent="WIyWlLk6GJQsqaUBKTNV-1" source="zkfFHV4jXpPFQw0GAbJ--13" target="eDszfDAxmyaRL6Qd2Sii-54">
          <mxGeometry relative="1" as="geometry" />
        </mxCell>
        <mxCell id="eDszfDAxmyaRL6Qd2Sii-71" value="1" style="edgeLabel;html=1;align=center;verticalAlign=middle;resizable=0;points=[];" vertex="1" connectable="0" parent="eDszfDAxmyaRL6Qd2Sii-70">
          <mxGeometry x="-0.8295" y="1" relative="1" as="geometry">
            <mxPoint as="offset" />
          </mxGeometry>
        </mxCell>
        <mxCell id="eDszfDAxmyaRL6Qd2Sii-72" value="*" style="edgeLabel;html=1;align=center;verticalAlign=middle;resizable=0;points=[];" vertex="1" connectable="0" parent="eDszfDAxmyaRL6Qd2Sii-70">
          <mxGeometry x="0.8033" y="4" relative="1" as="geometry">
            <mxPoint y="-1" as="offset" />
          </mxGeometry>
        </mxCell>
        <mxCell id="eDszfDAxmyaRL6Qd2Sii-95" style="edgeStyle=orthogonalEdgeStyle;rounded=0;orthogonalLoop=1;jettySize=auto;html=1;exitX=0.25;exitY=1;exitDx=0;exitDy=0;" edge="1" parent="WIyWlLk6GJQsqaUBKTNV-1" source="zkfFHV4jXpPFQw0GAbJ--13" target="eDszfDAxmyaRL6Qd2Sii-73">
          <mxGeometry relative="1" as="geometry">
            <Array as="points">
              <mxPoint x="448" y="447" />
              <mxPoint x="471" y="447" />
            </Array>
          </mxGeometry>
        </mxCell>
        <mxCell id="eDszfDAxmyaRL6Qd2Sii-96" value="1t" style="edgeLabel;html=1;align=center;verticalAlign=middle;resizable=0;points=[];" vertex="1" connectable="0" parent="eDszfDAxmyaRL6Qd2Sii-95">
          <mxGeometry x="-0.7867" y="3" relative="1" as="geometry">
            <mxPoint as="offset" />
          </mxGeometry>
        </mxCell>
        <mxCell id="eDszfDAxmyaRL6Qd2Sii-97" value="1" style="edgeLabel;html=1;align=center;verticalAlign=middle;resizable=0;points=[];" vertex="1" connectable="0" parent="eDszfDAxmyaRL6Qd2Sii-95">
          <mxGeometry x="0.7342" y="-2" relative="1" as="geometry">
            <mxPoint y="1" as="offset" />
          </mxGeometry>
        </mxCell>
        <mxCell id="zkfFHV4jXpPFQw0GAbJ--13" value="Server" style="swimlane;fontStyle=0;align=center;verticalAlign=top;childLayout=stackLayout;horizontal=1;startSize=26;horizontalStack=0;resizeParent=1;resizeLast=0;collapsible=1;marginBottom=0;rounded=0;shadow=0;strokeWidth=1;" parent="WIyWlLk6GJQsqaUBKTNV-1" vertex="1">
          <mxGeometry x="370" y="47" width="310" height="336" as="geometry">
            <mxRectangle x="340" y="380" width="170" height="26" as="alternateBounds" />
          </mxGeometry>
        </mxCell>
        <mxCell id="eDszfDAxmyaRL6Qd2Sii-28" value="- serverSocket: ServerSocket" style="text;align=left;verticalAlign=top;spacingLeft=4;spacingRight=4;overflow=hidden;rotatable=0;points=[[0,0.5],[1,0.5]];portConstraint=eastwest;" vertex="1" parent="zkfFHV4jXpPFQw0GAbJ--13">
          <mxGeometry y="26" width="310" height="26" as="geometry" />
        </mxCell>
        <mxCell id="eDszfDAxmyaRL6Qd2Sii-29" value="+ synchronizedList : List&lt;String&gt;" style="text;align=left;verticalAlign=top;spacingLeft=4;spacingRight=4;overflow=hidden;rotatable=0;points=[[0,0.5],[1,0.5]];portConstraint=eastwest;" vertex="1" parent="zkfFHV4jXpPFQw0GAbJ--13">
          <mxGeometry y="52" width="310" height="28" as="geometry" />
        </mxCell>
        <mxCell id="zkfFHV4jXpPFQw0GAbJ--14" value="+ synchronizedMap : Map&lt;String, ClientHandler&gt;" style="text;align=left;verticalAlign=top;spacingLeft=4;spacingRight=4;overflow=hidden;rotatable=0;points=[[0,0.5],[1,0.5]];portConstraint=eastwest;" parent="zkfFHV4jXpPFQw0GAbJ--13" vertex="1">
          <mxGeometry y="80" width="310" height="30" as="geometry" />
        </mxCell>
        <mxCell id="zkfFHV4jXpPFQw0GAbJ--15" value="" style="line;html=1;strokeWidth=1;align=left;verticalAlign=middle;spacingTop=-1;spacingLeft=3;spacingRight=3;rotatable=0;labelPosition=right;points=[];portConstraint=eastwest;" parent="zkfFHV4jXpPFQw0GAbJ--13" vertex="1">
          <mxGeometry y="110" width="310" height="8" as="geometry" />
        </mxCell>
        <mxCell id="eDszfDAxmyaRL6Qd2Sii-65" value="+ Server(serverSocket: ServerSocket)&#xa;" style="text;align=left;verticalAlign=top;spacingLeft=4;spacingRight=4;overflow=hidden;rotatable=0;points=[[0,0.5],[1,0.5]];portConstraint=eastwest;" vertex="1" parent="zkfFHV4jXpPFQw0GAbJ--13">
          <mxGeometry y="118" width="310" height="28" as="geometry" />
        </mxCell>
        <mxCell id="eDszfDAxmyaRL6Qd2Sii-30" value="+ startServer(): void" style="text;align=left;verticalAlign=top;spacingLeft=4;spacingRight=4;overflow=hidden;rotatable=0;points=[[0,0.5],[1,0.5]];portConstraint=eastwest;" vertex="1" parent="zkfFHV4jXpPFQw0GAbJ--13">
          <mxGeometry y="146" width="310" height="30" as="geometry" />
        </mxCell>
        <mxCell id="eDszfDAxmyaRL6Qd2Sii-31" value="+ broadCast(msg: String) : void" style="text;align=left;verticalAlign=top;spacingLeft=4;spacingRight=4;overflow=hidden;rotatable=0;points=[[0,0.5],[1,0.5]];portConstraint=eastwest;" vertex="1" parent="zkfFHV4jXpPFQw0GAbJ--13">
          <mxGeometry y="176" width="310" height="30" as="geometry" />
        </mxCell>
        <mxCell id="eDszfDAxmyaRL6Qd2Sii-32" value="+ processResponse() : void" style="text;align=left;verticalAlign=top;spacingLeft=4;spacingRight=4;overflow=hidden;rotatable=0;points=[[0,0.5],[1,0.5]];portConstraint=eastwest;" vertex="1" parent="zkfFHV4jXpPFQw0GAbJ--13">
          <mxGeometry y="206" width="310" height="30" as="geometry" />
        </mxCell>
        <mxCell id="eDszfDAxmyaRL6Qd2Sii-41" value="+ payLoad(tag: String, msg: String, time: String)  : void" style="text;align=left;verticalAlign=top;spacingLeft=4;spacingRight=4;overflow=hidden;rotatable=0;points=[[0,0.5],[1,0.5]];portConstraint=eastwest;" vertex="1" parent="zkfFHV4jXpPFQw0GAbJ--13">
          <mxGeometry y="236" width="310" height="30" as="geometry" />
        </mxCell>
        <mxCell id="eDszfDAxmyaRL6Qd2Sii-42" value="+ closeServer()  : void" style="text;align=left;verticalAlign=top;spacingLeft=4;spacingRight=4;overflow=hidden;rotatable=0;points=[[0,0.5],[1,0.5]];portConstraint=eastwest;" vertex="1" parent="zkfFHV4jXpPFQw0GAbJ--13">
          <mxGeometry y="266" width="310" height="30" as="geometry" />
        </mxCell>
        <mxCell id="eDszfDAxmyaRL6Qd2Sii-43" value="+ getTime() : String" style="text;align=left;verticalAlign=top;spacingLeft=4;spacingRight=4;overflow=hidden;rotatable=0;points=[[0,0.5],[1,0.5]];portConstraint=eastwest;" vertex="1" parent="zkfFHV4jXpPFQw0GAbJ--13">
          <mxGeometry y="296" width="310" height="30" as="geometry" />
        </mxCell>
        <mxCell id="eDszfDAxmyaRL6Qd2Sii-3" value="" style="edgeStyle=orthogonalEdgeStyle;rounded=0;orthogonalLoop=1;jettySize=auto;html=1;" edge="1" parent="WIyWlLk6GJQsqaUBKTNV-1" source="eDszfDAxmyaRL6Qd2Sii-0" target="zkfFHV4jXpPFQw0GAbJ--3">
          <mxGeometry relative="1" as="geometry" />
        </mxCell>
        <mxCell id="eDszfDAxmyaRL6Qd2Sii-27" value="*" style="edgeLabel;html=1;align=center;verticalAlign=middle;resizable=0;points=[];" vertex="1" connectable="0" parent="eDszfDAxmyaRL6Qd2Sii-3">
          <mxGeometry x="-0.8117" y="3" relative="1" as="geometry">
            <mxPoint x="-6" y="3" as="offset" />
          </mxGeometry>
        </mxCell>
        <mxCell id="eDszfDAxmyaRL6Qd2Sii-0" value="Tester" style="swimlane;fontStyle=0;align=center;verticalAlign=top;childLayout=stackLayout;horizontal=1;startSize=26;horizontalStack=0;resizeParent=1;resizeLast=0;collapsible=1;marginBottom=0;rounded=0;shadow=0;strokeWidth=1;" vertex="1" parent="WIyWlLk6GJQsqaUBKTNV-1">
          <mxGeometry x="-310" y="180" width="160" height="70" as="geometry">
            <mxRectangle x="340" y="380" width="170" height="26" as="alternateBounds" />
          </mxGeometry>
        </mxCell>
        <mxCell id="eDszfDAxmyaRL6Qd2Sii-2" value="" style="line;html=1;strokeWidth=1;align=left;verticalAlign=middle;spacingTop=-1;spacingLeft=3;spacingRight=3;rotatable=0;labelPosition=right;points=[];portConstraint=eastwest;" vertex="1" parent="eDszfDAxmyaRL6Qd2Sii-0">
          <mxGeometry y="26" width="160" height="8" as="geometry" />
        </mxCell>
        <mxCell id="eDszfDAxmyaRL6Qd2Sii-1" value="+ run() void" style="text;align=left;verticalAlign=top;spacingLeft=4;spacingRight=4;overflow=hidden;rotatable=0;points=[[0,0.5],[1,0.5]];portConstraint=eastwest;" vertex="1" parent="eDszfDAxmyaRL6Qd2Sii-0">
          <mxGeometry y="34" width="160" height="26" as="geometry" />
        </mxCell>
        <mxCell id="eDszfDAxmyaRL6Qd2Sii-24" value="1...*" style="text;html=1;align=center;verticalAlign=middle;resizable=0;points=[];autosize=1;strokeColor=none;fillColor=none;" vertex="1" parent="WIyWlLk6GJQsqaUBKTNV-1">
          <mxGeometry x="-140" y="100" width="40" height="30" as="geometry" />
        </mxCell>
        <mxCell id="eDszfDAxmyaRL6Qd2Sii-44" value="ClientHandler" style="swimlane;fontStyle=0;align=center;verticalAlign=top;childLayout=stackLayout;horizontal=1;startSize=26;horizontalStack=0;resizeParent=1;resizeLast=0;collapsible=1;marginBottom=0;rounded=0;shadow=0;strokeWidth=1;" vertex="1" parent="WIyWlLk6GJQsqaUBKTNV-1">
          <mxGeometry x="711" y="60" width="390" height="500" as="geometry">
            <mxRectangle x="340" y="380" width="170" height="26" as="alternateBounds" />
          </mxGeometry>
        </mxCell>
        <mxCell id="eDszfDAxmyaRL6Qd2Sii-45" value="- bufferedReader: BufferedReader" style="text;align=left;verticalAlign=top;spacingLeft=4;spacingRight=4;overflow=hidden;rotatable=0;points=[[0,0.5],[1,0.5]];portConstraint=eastwest;" vertex="1" parent="eDszfDAxmyaRL6Qd2Sii-44">
          <mxGeometry y="26" width="390" height="26" as="geometry" />
        </mxCell>
        <mxCell id="eDszfDAxmyaRL6Qd2Sii-46" value="- bufferedWriter: BufferedWriter" style="text;align=left;verticalAlign=top;spacingLeft=4;spacingRight=4;overflow=hidden;rotatable=0;points=[[0,0.5],[1,0.5]];portConstraint=eastwest;" vertex="1" parent="eDszfDAxmyaRL6Qd2Sii-44">
          <mxGeometry y="52" width="390" height="38" as="geometry" />
        </mxCell>
        <mxCell id="eDszfDAxmyaRL6Qd2Sii-47" value="- username: String&#xa;" style="text;align=left;verticalAlign=top;spacingLeft=4;spacingRight=4;overflow=hidden;rotatable=0;points=[[0,0.5],[1,0.5]];portConstraint=eastwest;" vertex="1" parent="eDszfDAxmyaRL6Qd2Sii-44">
          <mxGeometry y="90" width="390" height="30" as="geometry" />
        </mxCell>
        <mxCell id="eDszfDAxmyaRL6Qd2Sii-60" value="-  socket: Socket" style="text;align=left;verticalAlign=top;spacingLeft=4;spacingRight=4;overflow=hidden;rotatable=0;points=[[0,0.5],[1,0.5]];portConstraint=eastwest;" vertex="1" parent="eDszfDAxmyaRL6Qd2Sii-44">
          <mxGeometry y="120" width="390" height="30" as="geometry" />
        </mxCell>
        <mxCell id="eDszfDAxmyaRL6Qd2Sii-61" value="- msgList: List&#xa;" style="text;align=left;verticalAlign=top;spacingLeft=4;spacingRight=4;overflow=hidden;rotatable=0;points=[[0,0.5],[1,0.5]];portConstraint=eastwest;" vertex="1" parent="eDszfDAxmyaRL6Qd2Sii-44">
          <mxGeometry y="150" width="390" height="30" as="geometry" />
        </mxCell>
        <mxCell id="eDszfDAxmyaRL6Qd2Sii-62" value="- request: String&#xa;" style="text;align=left;verticalAlign=top;spacingLeft=4;spacingRight=4;overflow=hidden;rotatable=0;points=[[0,0.5],[1,0.5]];portConstraint=eastwest;" vertex="1" parent="eDszfDAxmyaRL6Qd2Sii-44">
          <mxGeometry y="180" width="390" height="30" as="geometry" />
        </mxCell>
        <mxCell id="eDszfDAxmyaRL6Qd2Sii-63" value="- userMap: Map&#xa;" style="text;align=left;verticalAlign=top;spacingLeft=4;spacingRight=4;overflow=hidden;rotatable=0;points=[[0,0.5],[1,0.5]];portConstraint=eastwest;" vertex="1" parent="eDszfDAxmyaRL6Qd2Sii-44">
          <mxGeometry y="210" width="390" height="30" as="geometry" />
        </mxCell>
        <mxCell id="eDszfDAxmyaRL6Qd2Sii-48" value="" style="line;html=1;strokeWidth=1;align=left;verticalAlign=middle;spacingTop=-1;spacingLeft=3;spacingRight=3;rotatable=0;labelPosition=right;points=[];portConstraint=eastwest;" vertex="1" parent="eDszfDAxmyaRL6Qd2Sii-44">
          <mxGeometry y="240" width="390" height="10" as="geometry" />
        </mxCell>
        <mxCell id="eDszfDAxmyaRL6Qd2Sii-66" value="+ ClientHandler(socket: Socket, msgList: List, userName: Map):" style="text;align=left;verticalAlign=top;spacingLeft=4;spacingRight=4;overflow=hidden;rotatable=0;points=[[0,0.5],[1,0.5]];portConstraint=eastwest;" vertex="1" parent="eDszfDAxmyaRL6Qd2Sii-44">
          <mxGeometry y="250" width="390" height="30" as="geometry" />
        </mxCell>
        <mxCell id="eDszfDAxmyaRL6Qd2Sii-49" value="+ setUserName(name: String): void" style="text;align=left;verticalAlign=top;spacingLeft=4;spacingRight=4;overflow=hidden;rotatable=0;points=[[0,0.5],[1,0.5]];portConstraint=eastwest;" vertex="1" parent="eDszfDAxmyaRL6Qd2Sii-44">
          <mxGeometry y="280" width="390" height="30" as="geometry" />
        </mxCell>
        <mxCell id="eDszfDAxmyaRL6Qd2Sii-50" value="+ sendMessage(message: String) : void" style="text;align=left;verticalAlign=top;spacingLeft=4;spacingRight=4;overflow=hidden;rotatable=0;points=[[0,0.5],[1,0.5]];portConstraint=eastwest;" vertex="1" parent="eDszfDAxmyaRL6Qd2Sii-44">
          <mxGeometry y="310" width="390" height="30" as="geometry" />
        </mxCell>
        <mxCell id="eDszfDAxmyaRL6Qd2Sii-51" value="+ listenToMessage() : void" style="text;align=left;verticalAlign=top;spacingLeft=4;spacingRight=4;overflow=hidden;rotatable=0;points=[[0,0.5],[1,0.5]];portConstraint=eastwest;" vertex="1" parent="eDszfDAxmyaRL6Qd2Sii-44">
          <mxGeometry y="340" width="390" height="30" as="geometry" />
        </mxCell>
        <mxCell id="eDszfDAxmyaRL6Qd2Sii-52" value="+ processUserName(request: String)  : void" style="text;align=left;verticalAlign=top;spacingLeft=4;spacingRight=4;overflow=hidden;rotatable=0;points=[[0,0.5],[1,0.5]];portConstraint=eastwest;" vertex="1" parent="eDszfDAxmyaRL6Qd2Sii-44">
          <mxGeometry y="370" width="390" height="30" as="geometry" />
        </mxCell>
        <mxCell id="eDszfDAxmyaRL6Qd2Sii-53" value="+ getTime()  : String" style="text;align=left;verticalAlign=top;spacingLeft=4;spacingRight=4;overflow=hidden;rotatable=0;points=[[0,0.5],[1,0.5]];portConstraint=eastwest;" vertex="1" parent="eDszfDAxmyaRL6Qd2Sii-44">
          <mxGeometry y="400" width="390" height="30" as="geometry" />
        </mxCell>
        <mxCell id="eDszfDAxmyaRL6Qd2Sii-54" value="+ close() : void" style="text;align=left;verticalAlign=top;spacingLeft=4;spacingRight=4;overflow=hidden;rotatable=0;points=[[0,0.5],[1,0.5]];portConstraint=eastwest;" vertex="1" parent="eDszfDAxmyaRL6Qd2Sii-44">
          <mxGeometry y="430" width="390" height="30" as="geometry" />
        </mxCell>
        <mxCell id="eDszfDAxmyaRL6Qd2Sii-67" value="+ payLoad(tag: String, msg: String, time: String)  : void" style="text;align=left;verticalAlign=top;spacingLeft=4;spacingRight=4;overflow=hidden;rotatable=0;points=[[0,0.5],[1,0.5]];portConstraint=eastwest;" vertex="1" parent="eDszfDAxmyaRL6Qd2Sii-44">
          <mxGeometry y="460" width="390" height="30" as="geometry" />
        </mxCell>
        <mxCell id="eDszfDAxmyaRL6Qd2Sii-73" value="TimeHeap" style="swimlane;fontStyle=0;align=center;verticalAlign=top;childLayout=stackLayout;horizontal=1;startSize=26;horizontalStack=0;resizeParent=1;resizeLast=0;collapsible=1;marginBottom=0;rounded=0;shadow=0;strokeWidth=1;" vertex="1" parent="WIyWlLk6GJQsqaUBKTNV-1">
          <mxGeometry x="290" y="510" width="361" height="210" as="geometry">
            <mxRectangle x="340" y="380" width="170" height="26" as="alternateBounds" />
          </mxGeometry>
        </mxCell>
        <mxCell id="eDszfDAxmyaRL6Qd2Sii-79" value="- priorityQueue: PriorityQueue&lt;TimeData&gt;" style="text;align=left;verticalAlign=top;spacingLeft=4;spacingRight=4;overflow=hidden;rotatable=0;points=[[0,0.5],[1,0.5]];portConstraint=eastwest;" vertex="1" parent="eDszfDAxmyaRL6Qd2Sii-73">
          <mxGeometry y="26" width="361" height="30" as="geometry" />
        </mxCell>
        <mxCell id="eDszfDAxmyaRL6Qd2Sii-81" value="" style="line;html=1;strokeWidth=1;align=left;verticalAlign=middle;spacingTop=-1;spacingLeft=3;spacingRight=3;rotatable=0;labelPosition=right;points=[];portConstraint=eastwest;" vertex="1" parent="eDszfDAxmyaRL6Qd2Sii-73">
          <mxGeometry y="56" width="361" height="10" as="geometry" />
        </mxCell>
        <mxCell id="eDszfDAxmyaRL6Qd2Sii-90" value="- addToQueue(localDateTime: localDateTime, data: String): void" style="text;align=left;verticalAlign=top;spacingLeft=4;spacingRight=4;overflow=hidden;rotatable=0;points=[[0,0.5],[1,0.5]];portConstraint=eastwest;" vertex="1" parent="eDszfDAxmyaRL6Qd2Sii-73">
          <mxGeometry y="66" width="361" height="30" as="geometry" />
        </mxCell>
        <mxCell id="eDszfDAxmyaRL6Qd2Sii-87" value="+ removeFromQueue()  : TimeData" style="text;align=left;verticalAlign=top;spacingLeft=4;spacingRight=4;overflow=hidden;rotatable=0;points=[[0,0.5],[1,0.5]];portConstraint=eastwest;" vertex="1" parent="eDszfDAxmyaRL6Qd2Sii-73">
          <mxGeometry y="96" width="361" height="30" as="geometry" />
        </mxCell>
        <mxCell id="eDszfDAxmyaRL6Qd2Sii-93" value="+ isEmpty()   boolean" style="text;align=left;verticalAlign=top;spacingLeft=4;spacingRight=4;overflow=hidden;rotatable=0;points=[[0,0.5],[1,0.5]];portConstraint=eastwest;" vertex="1" parent="eDszfDAxmyaRL6Qd2Sii-73">
          <mxGeometry y="126" width="361" height="30" as="geometry" />
        </mxCell>
        <mxCell id="eDszfDAxmyaRL6Qd2Sii-94" value="+ size()   int" style="text;align=left;verticalAlign=top;spacingLeft=4;spacingRight=4;overflow=hidden;rotatable=0;points=[[0,0.5],[1,0.5]];portConstraint=eastwest;" vertex="1" parent="eDszfDAxmyaRL6Qd2Sii-73">
          <mxGeometry y="156" width="361" height="30" as="geometry" />
        </mxCell>
        <mxCell id="eDszfDAxmyaRL6Qd2Sii-105" value="TimeData" style="swimlane;fontStyle=0;align=center;verticalAlign=top;childLayout=stackLayout;horizontal=1;startSize=26;horizontalStack=0;resizeParent=1;resizeLast=0;collapsible=1;marginBottom=0;rounded=0;shadow=0;strokeWidth=1;" vertex="1" parent="WIyWlLk6GJQsqaUBKTNV-1">
          <mxGeometry x="730" y="570" width="360" height="218" as="geometry">
            <mxRectangle x="340" y="380" width="170" height="26" as="alternateBounds" />
          </mxGeometry>
        </mxCell>
        <mxCell id="eDszfDAxmyaRL6Qd2Sii-109" value="- localDateTime: LocalDateTime&#xa;" style="text;align=left;verticalAlign=top;spacingLeft=4;spacingRight=4;overflow=hidden;rotatable=0;points=[[0,0.5],[1,0.5]];portConstraint=eastwest;" vertex="1" parent="eDszfDAxmyaRL6Qd2Sii-105">
          <mxGeometry y="26" width="360" height="30" as="geometry" />
        </mxCell>
        <mxCell id="eDszfDAxmyaRL6Qd2Sii-110" value="- data String&#xa;" style="text;align=left;verticalAlign=top;spacingLeft=4;spacingRight=4;overflow=hidden;rotatable=0;points=[[0,0.5],[1,0.5]];portConstraint=eastwest;" vertex="1" parent="eDszfDAxmyaRL6Qd2Sii-105">
          <mxGeometry y="56" width="360" height="30" as="geometry" />
        </mxCell>
        <mxCell id="eDszfDAxmyaRL6Qd2Sii-106" value="" style="line;html=1;strokeWidth=1;align=left;verticalAlign=middle;spacingTop=-1;spacingLeft=3;spacingRight=3;rotatable=0;labelPosition=right;points=[];portConstraint=eastwest;" vertex="1" parent="eDszfDAxmyaRL6Qd2Sii-105">
          <mxGeometry y="86" width="360" height="8" as="geometry" />
        </mxCell>
        <mxCell id="eDszfDAxmyaRL6Qd2Sii-107" value="+ TimeData(localDateTime: LocalDateTime, data: String)" style="text;align=left;verticalAlign=top;spacingLeft=4;spacingRight=4;overflow=hidden;rotatable=0;points=[[0,0.5],[1,0.5]];portConstraint=eastwest;" vertex="1" parent="eDszfDAxmyaRL6Qd2Sii-105">
          <mxGeometry y="94" width="360" height="26" as="geometry" />
        </mxCell>
        <mxCell id="eDszfDAxmyaRL6Qd2Sii-116" value="+ getLocalDateTime(): LocalDateTime&#xa;" style="text;align=left;verticalAlign=top;spacingLeft=4;spacingRight=4;overflow=hidden;rotatable=0;points=[[0,0.5],[1,0.5]];portConstraint=eastwest;" vertex="1" parent="eDszfDAxmyaRL6Qd2Sii-105">
          <mxGeometry y="120" width="360" height="26" as="geometry" />
        </mxCell>
        <mxCell id="eDszfDAxmyaRL6Qd2Sii-117" value="+ getData(): String&#xa;" style="text;align=left;verticalAlign=top;spacingLeft=4;spacingRight=4;overflow=hidden;rotatable=0;points=[[0,0.5],[1,0.5]];portConstraint=eastwest;" vertex="1" parent="eDszfDAxmyaRL6Qd2Sii-105">
          <mxGeometry y="146" width="360" height="36" as="geometry" />
        </mxCell>
        <mxCell id="eDszfDAxmyaRL6Qd2Sii-118" value="+ compareTo(other: TimeData): int&#xa;" style="text;align=left;verticalAlign=top;spacingLeft=4;spacingRight=4;overflow=hidden;rotatable=0;points=[[0,0.5],[1,0.5]];portConstraint=eastwest;" vertex="1" parent="eDszfDAxmyaRL6Qd2Sii-105">
          <mxGeometry y="182" width="360" height="36" as="geometry" />
        </mxCell>
        <mxCell id="eDszfDAxmyaRL6Qd2Sii-119" style="edgeStyle=orthogonalEdgeStyle;rounded=0;orthogonalLoop=1;jettySize=auto;html=1;exitX=1;exitY=0.5;exitDx=0;exitDy=0;entryX=0;entryY=0.5;entryDx=0;entryDy=0;" edge="1" parent="WIyWlLk6GJQsqaUBKTNV-1" source="eDszfDAxmyaRL6Qd2Sii-90" target="eDszfDAxmyaRL6Qd2Sii-107">
          <mxGeometry relative="1" as="geometry" />
        </mxCell>
        <mxCell id="eDszfDAxmyaRL6Qd2Sii-120" value="1" style="text;html=1;align=center;verticalAlign=middle;resizable=0;points=[];autosize=1;strokeColor=none;fillColor=none;" vertex="1" parent="WIyWlLk6GJQsqaUBKTNV-1">
          <mxGeometry x="645" y="575" width="30" height="30" as="geometry" />
        </mxCell>
        <mxCell id="eDszfDAxmyaRL6Qd2Sii-122" value="*" style="rounded=1;whiteSpace=wrap;html=1;" vertex="1" parent="WIyWlLk6GJQsqaUBKTNV-1">
          <mxGeometry x="690" y="670" width="30" height="10" as="geometry" />
        </mxCell>
      </root>
    </mxGraphModel>
  </diagram>
</mxfile>
